<?xml version="1.0" encoding="UTF-8"?>
<svg id="Ebene_10" data-name="Ebene 10" xmlns="http://www.w3.org/2000/svg" viewBox="0 0 826.95 1313.41">
  <defs>
    <style>
      .cls-1 {
        fill: #ff002a;
      }

      .cls-2 {
        fill: #f3daf8;
      }
    </style>
  </defs>
  <g>
    <path class="cls-1" d="M457.37,24.72c34.81,0,68.35,1.11,100.68,3.33,32.3,2.23,63.37,5.55,93.23,9.98v75.6h-24.23c-14.93-25.4-37.93-44.23-68.99-56.55-31.09-12.3-70.87-18.45-119.34-18.45-36.04,0-65.56,3.74-88.56,11.2-23,7.46-34.5,16.43-34.5,26.91,0,9.28,7.76,17.65,23.31,25.1,15.52,7.46,43.18,15.42,82.99,23.88l95.08,19.97c39.76,8.07,70.85,16.33,93.23,24.79,22.38,8.48,40.09,17.54,53.14,27.22,13.05,9.68,19.57,20.55,19.57,32.65,0,16.95-12.76,32.57-38.23,46.88-25.47,14.32-61.52,25.61-108.13,33.87-46.61,8.24-99.13,12.39-157.55,12.39-38.54,0-77.4-1.72-116.53-5.14-39.16-3.43-72.42-8.17-99.75-14.21v-78.01h20.52c23.62,28.63,52.49,49.49,86.68,62.59,34.19,13.12,74.9,19.66,122.13,19.66,34.81,0,64.33-3.22,88.56-9.68,24.23-6.45,36.38-15.33,36.38-26.62,0-10.47-7.48-18.93-22.38-25.4-14.93-6.45-41.66-13.7-80.18-21.78l-96.94-21.76c-53.47-11.69-93.87-24.68-121.2-39.01-27.35-14.32-41.02-30.35-41.02-48.08,0-16.53,12.74-31.66,38.21-45.36s60.59-24.79,105.35-33.27c44.76-8.46,97.58-12.7,158.51-12.7M457.37,2.72c-61.97,0-116.67,4.4-162.59,13.08-47.43,8.98-83.96,20.6-111.68,35.51-33.04,17.77-49.79,39.55-49.79,64.74,0,26.49,17.77,49.23,52.81,67.58,29.3,15.35,70.73,28.77,126.66,41l96.87,21.74.15.03.15.03c46.01,9.64,66.71,16.44,75.97,20.44,3.4,1.48,5.62,2.81,7.03,3.84-2.95,1.7-8.38,4.17-17.96,6.72-22.25,5.94-50.14,8.94-82.9,8.94-44.33,0-82.77-6.12-114.25-18.2-30.42-11.66-56.52-30.51-77.59-56.05l-6.6-8h-52.89v117.68l17.25,3.82c28.09,6.22,62.6,11.14,102.58,14.65,39.65,3.46,79.51,5.22,118.46,5.22,59.34,0,113.64-4.28,161.38-12.72,49.53-8.78,87.18-20.67,115.08-36.36,32.81-18.43,49.45-40.65,49.45-66.06,0-13.32-4.94-32.86-28.46-50.32-14.79-10.98-33.91-20.83-58.46-30.13-23.66-8.94-55.25-17.37-96.58-25.77l-94.97-19.94c-47.18-10.03-68.47-17.6-78.01-22.19-3.57-1.71-6.07-3.22-7.8-4.43,3.02-1.77,8.05-4.17,16.24-6.83,20.73-6.72,48.24-10.13,81.78-10.13,45.45,0,82.88,5.69,111.25,16.91,26.62,10.55,45.64,26,58.12,47.24l6.38,10.85h58.82V19.04l-18.78-2.78c-30.29-4.49-62.23-7.91-94.94-10.16-32.77-2.24-67.15-3.38-102.19-3.38h0Z"/>
    <path class="cls-1" d="M409.82,346.56c78.3,0,146.98,6.05,206.02,18.14,59.04,12.09,105.04,29.43,137.98,52.01,32.95,22.58,49.42,49,49.42,79.23s-16.47,56.55-49.42,78.93c-32.95,22.38-78.94,39.72-137.98,52.01-59.04,12.28-127.72,18.44-206.02,18.44s-141.39-6.16-200.43-18.44c-59.04-12.3-104.73-29.74-137.06-52.32-32.33-22.58-48.47-48.58-48.47-78.01s16.14-56.75,48.47-79.53c32.33-22.78,77.71-40.23,136.13-52.32,58.42-12.09,125.53-18.14,201.36-18.14M409.82,631.43c33.57,0,61.52-5.03,83.89-15.11,22.38-10.08,39.16-25.3,50.35-45.67,11.19-20.35,16.78-45.46,16.78-75.31s-5.59-54.32-16.78-74.69c-11.19-20.35-27.97-35.48-50.35-45.36-22.38-9.87-50.33-14.82-83.89-14.82-28.59,0-53.76,5.04-75.52,15.13-21.76,10.08-38.21,25.1-49.4,45.05-11.19,19.97-16.78,45.07-16.78,75.31s5.59,54.94,16.78,75.29c11.19,20.37,27.64,35.5,49.4,45.36,21.76,9.88,46.92,14.82,75.52,14.82M409.82,324.56c-76.96,0-146.2,6.26-205.82,18.6-61.11,12.65-109.67,31.45-144.34,55.88-18.57,13.08-32.86,27.72-42.47,43.5-10.17,16.69-15.32,34.86-15.32,54.01,0,36.91,19.47,69.23,57.87,96.05,34.64,24.2,83.48,42.98,145.17,55.82,60.29,12.54,129.23,18.9,204.91,18.9,79.39,0,150.22-6.36,210.5-18.9,61.6-12.83,110.68-31.45,145.87-55.35,18.94-12.86,33.52-27.34,43.35-43.04,10.42-16.65,15.71-34.84,15.71-54.09s-5.28-37.44-15.69-54.13c-9.82-15.74-24.38-30.29-43.3-43.25-35.23-24.14-84.35-42.79-146.01-55.42-60.21-12.33-131.02-18.59-210.44-18.59h0ZM409.82,609.43c-25.3,0-47.65-4.32-66.42-12.85-17.46-7.92-30.28-19.67-39.21-35.92-9.33-16.98-14.07-38.75-14.07-64.7s4.7-48,13.98-64.55c8.95-15.97,21.86-27.69,39.46-35.85,18.74-8.68,41.03-13.09,66.27-13.09,30.3,0,55.54,4.36,75.02,12.95,17.99,7.95,31.06,19.67,39.95,35.83,9.33,16.99,14.06,38.55,14.06,64.09s-4.73,47.73-14.06,64.71c-8.91,16.22-22.03,28.07-40.11,36.21-19.39,8.74-44.58,13.17-74.86,13.17h0Z"/>
    <path class="cls-1" d="M411.71,667.59c75.8,0,142.93,6.16,201.36,18.45,58.42,12.3,104.08,29.73,137.03,52.31,32.95,22.58,49.42,49,49.42,79.22s-16.47,56.65-49.42,79.23c-32.95,22.58-78.61,40.12-137.03,52.62-58.42,12.5-125.56,18.75-201.36,18.75s-141.1-6.25-199.53-18.75c-58.42-12.5-103.8-30.04-136.1-52.62-32.33-22.58-48.47-48.78-48.47-78.63s16.14-56.73,48.47-79.51c32.3-22.78,77.37-40.32,135.17-52.62,57.8-12.3,124.6-18.45,200.45-18.45M411.71,930.68c34.78,0,64.3-4.22,88.53-12.7,24.24-8.48,42.59-21.17,55.02-38.11,12.43-16.92,18.64-37.89,18.64-62.9s-6.21-45.25-18.64-61.99c-12.43-16.73-30.78-29.23-55.02-37.49-24.23-8.26-53.76-12.4-88.53-12.4s-62.16,4.15-85.78,12.4c-23.62,8.26-41.66,20.76-54.09,37.49-12.43,16.73-18.64,37.6-18.64,62.59s6.21,45.98,18.64,62.92c12.43,16.94,30.47,29.54,54.09,37.8,23.62,8.26,52.21,12.39,85.78,12.39M411.71,645.59c-76.99,0-145.97,6.37-205.03,18.93-60.47,12.86-108.68,31.76-143.28,56.16-18.56,13.08-32.85,27.71-42.47,43.5-10.17,16.69-15.32,34.85-15.32,53.99s5.18,37.02,15.38,53.58c9.63,15.62,23.92,30.11,42.49,43.08,34.56,24.16,83.05,43.04,144.1,56.09,59.66,12.76,128.34,19.23,204.13,19.23s146.3-6.47,205.96-19.23c60.94-13.04,109.68-31.87,144.87-55.98,18.92-12.96,33.48-27.51,43.3-43.24,10.41-16.69,15.69-34.9,15.69-54.14s-5.28-37.43-15.69-54.12c-9.82-15.73-24.38-30.29-43.3-43.25-35.19-24.12-83.96-42.85-144.94-55.69-59.66-12.56-128.93-18.92-205.89-18.92h0ZM411.71,908.68c-30.93,0-57.35-3.75-78.51-11.16-19.52-6.83-33.79-16.66-43.62-30.05-9.67-13.19-14.38-29.51-14.38-49.9s4.68-36.52,14.3-49.48c9.83-13.24,24.12-23,43.69-29.84,21.2-7.41,47.61-11.17,78.51-11.17s59.58,3.78,81.44,11.23c19.84,6.76,34.8,16.78,44.45,29.78,9.62,12.96,14.3,28.95,14.3,48.87s-4.7,36.71-14.37,49.88c-9.69,13.2-24.67,23.41-44.55,30.37-21.75,7.61-49.1,11.46-81.27,11.46h0Z"/>
    <path class="cls-1" d="M411.7,988.22c75.82,0,142.32,6.26,199.5,18.76,57.18,12.5,102.23,30.04,135.17,52.62,32.95,22.58,49.42,48.98,49.42,79.22s-16.47,56.76-49.42,79.54c-32.95,22.78-77.99,40.41-135.17,52.91-57.18,12.5-124.29,18.75-201.36,18.75s-138.91-6.25-196.72-18.75c-57.8-12.5-102.56-30.13-134.25-52.91-31.71-22.78-47.54-49.09-47.54-78.94s15.83-56.73,47.54-79.51c31.69-22.78,76.13-40.43,133.32-52.93s123.68-18.76,199.5-18.76M409.85,1234.98c38.52,0,71.16-3.82,97.89-11.49,26.71-7.66,46.61-18.75,59.66-33.27,13.05-14.51,19.57-31.85,19.57-52.01s-6.52-36.78-19.57-51.1c-13.05-14.31-33.26-25.19-60.61-32.65-27.35-7.45-59.04-11.2-95.08-11.2s-67.14,3.74-93.23,11.2c-26.12,7.46-45.69,18.34-58.73,32.65-13.05,14.32-19.57,31.55-19.57,51.7s6.52,36.9,19.57,51.41c13.05,14.52,32.61,25.61,58.73,33.27,26.09,7.67,56.57,11.49,91.37,11.49M411.7,966.22c-76.99,0-145.69,6.48-204.2,19.27-59.87,13.08-107.47,32.11-141.46,56.56-18.23,13.1-32.26,27.75-41.7,43.54-9.95,16.65-15,34.76-15,53.83,0,37.21,19.08,69.78,56.71,96.81,33.98,24.44,81.91,43.46,142.43,56.55,59.06,12.77,126.81,19.24,201.36,19.24,78.27,0,147.6-6.48,206.05-19.25,59.72-13.05,107.83-32,142.99-56.31,18.89-13.06,33.44-27.68,43.24-43.46,10.4-16.73,15.67-34.96,15.67-54.18s-5.28-37.44-15.69-54.13c-9.81-15.73-24.38-30.28-43.3-43.24-35.15-24.09-83.24-42.92-142.91-55.96-58.5-12.79-127.21-19.27-204.2-19.27h0ZM409.85,1212.98c-32.59,0-61.25-3.57-85.17-10.6-22.02-6.45-38.35-15.49-48.57-26.86-9.38-10.43-13.93-22.44-13.93-36.71s4.52-26.67,13.83-36.89c10.19-11.18,26.51-20.03,48.51-26.31,24.05-6.87,53.38-10.35,87.19-10.35s63.92,3.51,89.3,10.42c23.14,6.31,40.01,15.14,50.14,26.25,9.3,10.21,13.82,22.08,13.82,36.28s-4.56,26.88-13.93,37.3c-10.18,11.34-26.79,20.36-49.36,26.83-24.61,7.06-55.5,10.64-91.83,10.64h0Z"/>
  </g>
  <g>
    <path class="cls-2" d="M262.51,318.35c-39.16-3.43-72.42-8.17-99.75-14.21v-78.01h20.52c23.62,28.63,52.49,49.49,86.68,62.59,34.19,13.12,74.9,19.66,122.13,19.66,34.81,0,64.33-3.22,88.56-9.68,24.23-6.45,36.38-15.33,36.38-26.62,0-10.47-7.48-18.93-22.38-25.4-14.93-6.45-41.66-13.7-80.18-21.78l-96.94-21.76c-53.47-11.69-93.87-24.68-121.2-39.01-27.35-14.32-41.02-30.35-41.02-48.09,0-16.53,12.74-31.66,38.21-45.36s60.59-24.79,105.35-33.27c44.76-8.46,97.58-12.7,158.51-12.7,34.81,0,68.35,1.11,100.68,3.33,32.3,2.23,63.37,5.55,93.23,9.98v75.6h-24.23c-14.93-25.4-37.93-44.23-68.99-56.55-31.09-12.3-70.87-18.45-119.34-18.45-36.04,0-65.56,3.74-88.56,11.2-23,7.45-34.5,16.43-34.5,26.91,0,9.28,7.76,17.65,23.31,25.1,15.52,7.45,43.18,15.42,82.99,23.88l95.08,19.97c39.76,8.07,70.85,16.33,93.23,24.79,22.38,8.48,40.09,17.54,53.14,27.22,13.05,9.68,19.57,20.55,19.57,32.65,0,16.95-12.76,32.57-38.23,46.88-25.47,14.32-61.52,25.61-108.13,33.87-46.61,8.24-99.13,12.39-157.55,12.39-38.54,0-77.4-1.72-116.53-5.13Z"/>
    <path class="cls-2" d="M209.4,626.89c-59.04-12.3-104.73-29.74-137.06-52.32-32.33-22.58-48.47-48.58-48.47-78.01s16.14-56.75,48.47-79.53c32.33-22.78,77.71-40.23,136.13-52.32,58.42-12.09,125.53-18.14,201.36-18.14s146.98,6.05,206.02,18.14c59.04,12.09,105.04,29.43,137.98,52.01s49.42,49,49.42,79.23-16.47,56.55-49.42,78.93-78.94,39.72-137.98,52.01c-59.04,12.28-127.72,18.44-206.02,18.44s-141.39-6.16-200.43-18.44ZM493.72,616.31c22.38-10.08,39.16-25.3,50.35-45.67,11.19-20.35,16.78-45.46,16.78-75.31s-5.59-54.32-16.78-74.69c-11.19-20.35-27.97-35.48-50.35-45.36-22.38-9.87-50.33-14.82-83.89-14.82-28.59,0-53.76,5.04-75.52,15.13-21.76,10.08-38.21,25.1-49.4,45.05-11.19,19.97-16.78,45.07-16.78,75.31s5.59,54.94,16.78,75.29c11.19,20.37,27.64,35.5,49.4,45.36,21.76,9.88,46.92,14.82,75.52,14.82,33.57,0,61.52-5.03,83.89-15.11Z"/>
    <path class="cls-2" d="M212.18,949.42c-58.42-12.5-103.8-30.04-136.1-52.62-32.33-22.58-48.47-48.78-48.47-78.63s16.14-56.73,48.47-79.51c32.3-22.78,77.37-40.32,135.17-52.62,57.8-12.3,124.6-18.45,200.45-18.45s142.93,6.16,201.36,18.45,104.08,29.73,137.03,52.31c32.95,22.58,49.42,49,49.42,79.22s-16.47,56.65-49.42,79.23-78.61,40.12-137.03,52.62c-58.42,12.5-125.56,18.75-201.36,18.75s-141.1-6.25-199.53-18.75ZM500.24,917.98c24.23-8.48,42.59-21.17,55.02-38.11,12.43-16.92,18.64-37.89,18.64-62.9s-6.21-45.25-18.64-61.99-30.78-29.23-55.02-37.49-53.76-12.4-88.54-12.4-62.16,4.15-85.78,12.4c-23.62,8.26-41.66,20.76-54.09,37.49-12.43,16.73-18.64,37.6-18.64,62.59s6.21,45.98,18.64,62.92c12.43,16.94,30.47,29.54,54.09,37.8,23.62,8.26,52.21,12.39,85.78,12.39s64.3-4.22,88.54-12.7Z"/>
    <path class="cls-2" d="M213.13,1271.27c-57.8-12.5-102.56-30.13-134.25-52.91-31.71-22.78-47.54-49.09-47.54-78.94s15.83-56.73,47.54-79.51c31.69-22.78,76.13-40.43,133.32-52.93s123.68-18.76,199.5-18.76,142.32,6.26,199.5,18.76,102.23,30.04,135.17,52.62c32.95,22.58,49.42,48.98,49.42,79.22s-16.47,56.76-49.42,79.54c-32.95,22.78-77.99,40.41-135.17,52.91-57.18,12.5-124.29,18.75-201.36,18.75s-138.91-6.25-196.72-18.75ZM507.74,1223.49c26.71-7.66,46.61-18.75,59.66-33.27,13.05-14.51,19.57-31.85,19.57-52.01s-6.52-36.78-19.57-51.1c-13.05-14.31-33.26-25.19-60.61-32.65-27.35-7.45-59.04-11.2-95.08-11.2s-67.14,3.74-93.23,11.2c-26.12,7.45-45.69,18.34-58.73,32.65-13.05,14.32-19.57,31.55-19.57,51.7s6.52,36.9,19.57,51.41c13.05,14.52,32.61,25.61,58.73,33.27,26.09,7.67,56.57,11.49,91.37,11.49,38.52,0,71.16-3.82,97.89-11.49Z"/>
  </g>
</svg>