<?xml version="1.0" encoding="UTF-8"?>
<svg id="Ebene_1" data-name="Ebene 1" xmlns="http://www.w3.org/2000/svg" viewBox="0 0 640.32 684.64">
  <defs>
    <style>
      .cls-1 {
        fill: #afd4ff;
      }
    </style>
  </defs>
  <path class="cls-1" d="M23.9,466.39c0-9.05,5.72-14.69,11.13-18.44,5.31-3.69,15.43-5.83,23.93-1.56,5.79,2.91,13.05,4.54,18.55,4.54,23.79,0,40.05-18.79,40.05-40.05,0-23.94-18.08-40.05-40.05-40.05-20.39,0-28.88-1.15-40.05-9.06-8.68-6.15-12.92-12.2-15.68-20.94C18.76,331.24,11.3,322.95,0,321.24v162.94c1.67.41,3.48.65,5.46.65,7.57,0,18.44-5.06,18.44-18.44Z"/>
</svg>