<?xml version="1.0" encoding="UTF-8"?>
<svg id="Ebene_1" data-name="Ebene 1" xmlns="http://www.w3.org/2000/svg" viewBox="0 0 640.32 684.64">
  <defs>
    <style>
      .cls-1 {
        fill: #afd4ff;
      }
    </style>
  </defs>
  <path class="cls-1" d="M640.32,460.96c-5-1-10.17-1.53-15.48-1.53-37.11,0-52.57-2.09-72.89-16.49-15.8-11.2-23.52-22.21-28.53-38.1-6.18-19.59-22.52-36.26-47.56-36.26s-49.39,26.76-49.39,49.39c0,13.04,5.15,23.25,17.29,35.33,8.97,8.92,15.69,25.93,10.5,40.78-5,14.31-17.43,25.5-37.82,24.77-31.14-1.11-41.87,28.41-41.87,41.87,0,8.91,3.21,18.83,9.56,26.78h256.17v-126.53Z"/>
</svg>