<?xml version="1.0" encoding="UTF-8"?>
<svg id="Ebene_1" data-name="Ebene 1" xmlns="http://www.w3.org/2000/svg" viewBox="0 0 640.32 684.64">
  <defs>
    <style>
      .cls-1 {
        fill: #afd4ff;
      }
    </style>
  </defs>
  <path class="cls-1" d="M272.52,127.89c-3.69,10.56-12.86,18.81-27.91,18.28-22.98-.82-30.89,20.97-30.89,30.9,0,13.79,10.4,30.9,30.89,30.9,3,0,6.79-.76,10.14-1.8,4.41-1.36,10.04-.32,15.17,3.74,4.66,3.69,7.78,10.63,7.3,14.8-.32,2.85-.37,4.19-.37,5.97,0,13.93,8.61,24.76,24.76,24.76,10.17,0,24.76-6.79,24.76-24.76,0-12.15,7.68-19.73,14.94-24.76,7.13-4.95,20.72-7.83,32.14-2.1,7.78,3.9,17.52,6.09,24.92,6.09,31.95,0,53.79-25.23,53.79-53.79,0-23.71-13.21-41.69-31.98-49.5h-149.39c2.97,6.39,4.2,14.17,1.72,21.28Z"/>
</svg>