<?xml version="1.0" encoding="UTF-8"?>
<svg id="Ebene_1" data-name="Ebene 1" xmlns="http://www.w3.org/2000/svg" viewBox="0 0 640.32 684.64">
  <defs>
    <style>
      .cls-1 {
        fill: #5c7fff;
      }
    </style>
  </defs>
  <path class="cls-1" d="M416.45,518.84c20.39.73,32.82-10.46,37.82-24.77,5.19-14.84-1.53-31.86-10.5-40.78-12.15-12.08-17.29-22.28-17.29-35.33,0-22.63,24.6-49.39,49.39-49.39s41.38,16.67,47.56,36.26c5.02,15.9,12.73,26.9,28.53,38.1,20.32,14.41,35.78,16.49,72.89,16.49,5.31,0,10.48.53,15.48,1.53V106.6h-220.13c18.77,7.81,31.98,25.79,31.98,49.5,0,28.55-21.83,53.79-53.79,53.79-7.4,0-17.14-2.19-24.92-6.09-11.42-5.73-25.01-2.85-32.14,2.1-7.26,5.04-14.94,12.61-14.94,24.76,0,17.97-14.59,24.76-24.76,24.76-16.15,0-24.76-10.83-24.76-24.76,0-1.77.04-3.11.37-5.97.47-4.17-2.65-11.11-7.3-14.8-5.13-4.06-10.76-5.1-15.17-3.74-3.35,1.03-7.14,1.8-10.14,1.8-20.49,0-30.89-17.1-30.89-30.9,0-9.93,7.92-31.71,30.89-30.9,15.04.54,24.22-7.72,27.91-18.28,2.49-7.11,1.26-14.89-1.72-21.28H0v214.64c11.3,1.71,18.76,10,21.78,19.58,2.76,8.74,7,14.78,15.68,20.94,11.17,7.92,19.66,9.06,40.05,9.06,21.97,0,40.05,16.11,40.05,40.05,0,21.26-16.26,40.05-40.05,40.05-5.51,0-12.76-1.63-18.55-4.54-8.5-4.27-18.62-2.12-23.93,1.56-5.41,3.75-11.13,9.39-11.13,18.44,0,13.38-10.86,18.44-18.44,18.44-1.98,0-3.79-.24-5.46-.65v103.31h384.15c-6.36-7.95-9.56-17.87-9.56-26.78,0-13.46,10.73-42.98,41.87-41.87Z"/>
</svg>