<?xml version="1.0" encoding="UTF-8"?>
<svg id="Ebene_1" data-name="Ebene 1" xmlns="http://www.w3.org/2000/svg" viewBox="0 0 640.32 684.64">
  <defs>
    <style>
      .cls-1 {
        fill: #5c7fff;
      }

      .cls-2 {
        fill: #fff;
      }
    </style>
  </defs>
  <rect class="cls-2" x="0" y="2.72" width="640.32" height="106.6"/>
  <path class="cls-1" d="M483.4,134.73c31,0,51.25,20.64,58.9,44.91,6.21,19.69,15.77,33.32,35.34,47.19,19.44,13.78,35.3,18.46,62.68,19.87V109.32H0v480.88h57.05c-10.55-8.14-16.83-20.98-16.83-34.77,0-26.1,19.71-43.67,43.67-43.67,22.23,0,31.49-1.25,43.67-9.88,9.46-6.71,14.09-13.3,17.09-22.83,3.7-11.74,13.49-21.72,28.49-21.72s29.59,16.03,29.59,29.59c0,7.81-3.08,13.93-10.36,21.16-5.38,5.35-9.4,15.54-6.29,24.43,3,8.57,10.44,15.27,22.66,14.84,18.65-.67,25.08,17.02,25.08,25.08,0,6-2.43,12.77-7.24,17.76h413.75v-166.98c-4.94-1.53-9.78-3.43-14.23-5.66-19.17-9.62-41.97-4.78-53.94,3.52-12.19,8.45-25.08,21.17-25.08,41.56,0,30.16-24.49,41.56-41.56,41.56-27.1,0-41.56-18.18-41.56-41.56,0-2.98.07-5.22.61-10.01.79-7-4.44-18.65-12.26-24.84-8.61-6.81-18.05-8.55-25.46-6.27-5.63,1.73-11.99,3.02-17.02,3.02-34.4,0-51.85-28.7-51.85-51.85,0-16.66,13.29-53.23,51.85-51.85,25.25.9,40.64-12.95,46.84-30.67,6.43-18.38-1.89-39.45-13.01-50.5-15.04-14.96-21.42-27.6-21.42-43.75,0-28.03,30.47-61.17,61.17-61.17Z"/>
</svg>