<?xml version="1.0" encoding="UTF-8"?>
<svg id="Ebene_1" data-name="Ebene 1" xmlns="http://www.w3.org/2000/svg" viewBox="0 0 640.32 684.64">
  <defs>
    <style>
      .cls-1 {
        fill: #afd4ff;
      }
    </style>
  </defs>
  <path class="cls-1" d="M208.73,547.36c-12.21.44-19.66-6.27-22.66-14.84-3.11-8.89.92-19.08,6.29-24.43,7.28-7.24,10.36-13.35,10.36-21.16,0-13.56-14.74-29.59-29.59-29.59s-24.79,9.98-28.49,21.72c-3,9.52-7.63,16.12-17.09,22.83-12.17,8.63-21.43,9.88-43.67,9.88-23.96,0-43.67,17.56-43.67,43.67,0,13.8,6.28,26.64,16.83,34.77h169.52c4.81-4.99,7.24-11.76,7.24-17.76,0-8.06-6.43-25.75-25.08-25.08Z"/>
</svg>