<?xml version="1.0" encoding="UTF-8"?>
<svg id="Ebene_1" data-name="Ebene 1" xmlns="http://www.w3.org/2000/svg" viewBox="0 0 640.32 684.64">
  <defs>
    <style>
      .cls-1 {
        fill: #afd4ff;
      }
    </style>
  </defs>
  <path class="cls-1" d="M577.64,226.82c-19.57-13.87-29.12-27.5-35.34-47.19-7.65-24.27-27.9-44.91-58.9-44.91s-61.17,33.14-61.17,61.17c0,16.15,6.38,28.79,21.42,43.75,11.11,11.05,19.44,32.12,13.01,50.5-6.2,17.72-21.59,31.58-46.84,30.67-38.56-1.38-51.85,35.19-51.85,51.85,0,23.15,17.46,51.85,51.85,51.85,5.03,0,11.4-1.28,17.02-3.02,7.41-2.28,16.85-.54,25.46,6.27,7.82,6.19,13.05,17.84,12.26,24.84-.54,4.79-.61,7.04-.61,10.01,0,23.38,14.46,41.56,41.56,41.56,17.07,0,41.56-11.4,41.56-41.56,0-20.39,12.89-33.11,25.08-41.56,11.97-8.31,34.77-13.14,53.94-3.52,4.46,2.24,9.3,4.13,14.23,5.66v-176.53c-27.39-1.42-43.24-6.09-62.68-19.87Z"/>
</svg>