<?xml version="1.0" encoding="UTF-8"?>
<svg id="Ebene_6" data-name="Ebene 6" xmlns="http://www.w3.org/2000/svg" viewBox="0 0 94 78.76">
  <defs>
    <style>
      .cls-1 {
        fill: #ff002a;
      }
    </style>
  </defs>
  <path class="cls-1" d="M70.86,4.42C61.79.41,51.66.16,42.58,3.26l6.85,10.53c5.46-1.2,11.29-.73,16.59,1.62,13.53,5.98,19.67,21.84,13.7,35.37-5.98,13.53-21.84,19.67-35.37,13.7-7.34-3.24-12.59-9.44-14.82-16.67h18.27L23.9,0,0,47.8h17.14c2.48,11.96,10.56,22.44,22.35,27.65,5.08,2.25,10.4,3.31,15.63,3.31,14.92,0,29.17-8.64,35.57-23.14,8.65-19.58-.25-42.55-19.83-51.2Z"/>
</svg>