<?xml version="1.0" encoding="UTF-8"?>
<svg id="Ebene_1" data-name="Ebene 1" xmlns="http://www.w3.org/2000/svg" viewBox="0 0 640.32 684.64">
  <defs>
    <style>
      .cls-1 {
        fill: #5c7fff;
      }
    </style>
  </defs>
  <path class="cls-1" d="M0,109.32v50.22c4.25-1.26,8.6-1.96,12.96-1.96,30.1,0,49.75,20.04,57.18,43.59,6.03,19.11,15.31,32.35,34.3,45.81,24.43,17.32,43.01,19.83,87.63,19.83,48.08,0,87.63,35.25,87.63,87.63,0,46.52-35.57,87.63-87.63,87.63-12.05,0-27.93-3.57-40.6-9.93-18.61-9.34-40.74-4.64-52.36,3.42-11.83,8.21-24.34,20.55-24.34,40.35,0,29.28-23.77,40.35-40.35,40.35S6.44,509.42,0,498.8v91.4h640.32V109.32H0Z"/>
</svg>