<?xml version="1.0" encoding="UTF-8"?>
<svg id="Ebene_1" data-name="Ebene 1" xmlns="http://www.w3.org/2000/svg" viewBox="0 0 640.32 684.64">
  <defs>
    <style>
      .cls-1 {
        fill: #afd4ff;
      }
    </style>
  </defs>
  <path class="cls-1" d="M34.42,516.25c16.57,0,40.35-11.07,40.35-40.35,0-19.79,12.51-32.14,24.34-40.35,11.62-8.06,33.76-12.76,52.36-3.42,12.67,6.36,28.55,9.93,40.6,9.93,52.06,0,87.63-41.11,87.63-87.63,0-52.38-39.55-87.63-87.63-87.63-44.62,0-63.2-2.51-87.63-19.83-18.99-13.47-28.27-26.7-34.3-45.81-7.43-23.56-27.08-43.59-57.18-43.59-4.36,0-8.7.7-12.96,1.96v339.26c6.44,10.62,18.06,17.45,34.42,17.45Z"/>
</svg>