<?xml version="1.0" encoding="UTF-8"?>
<svg id="Ebene_1" data-name="Ebene 1" xmlns="http://www.w3.org/2000/svg" viewBox="0 0 640.32 684.64">
  <defs>
    <style>
      .cls-1 {
        fill: #5c7fff;
      }
    </style>
  </defs>
  <path class="cls-1" d="M516.95,382.93c52.61,0,98.77,27.63,124.76,69.17V109.32h-220.48c1.18,6.34,1.8,12.88,1.8,19.56,0,58.69-47.58,106.27-106.27,106.27s-106.27-47.58-106.27-106.27c0-6.68.62-13.22,1.8-19.56H1.39v181c3.84-.57,7.76-.88,11.76-.88,43.7,0,79.13,35.43,79.13,79.13s-35.43,79.13-79.13,79.13c-4,0-7.92-.3-11.76-.88v143.38h381.34c-8.26-18.38-12.85-38.75-12.85-60.21,0-81.23,65.85-147.07,147.07-147.07Z"/>
</svg>