<?xml version="1.0" encoding="UTF-8"?>
<svg id="Ebene_6" data-name="Ebene 6" xmlns="http://www.w3.org/2000/svg" viewBox="0 0 258.39 258.39">
  <defs>
    <style>
      .cls-1 {
        fill: #ff002a;
      }
    </style>
  </defs>
  <path class="cls-1" d="M166.24,104.84c16.7,0,30.44,12.24,30.44,30.44,0,16.16-12.36,30.44-30.44,30.44-4.19,0-9.7-1.24-14.1-3.45-6.46-3.24-14.15-1.61-18.19,1.19-4.11,2.85-8.46,7.14-8.46,14.02,0,10.17-8.26,14.02-14.02,14.02-9.14,0-14.02-6.13-14.02-14.02,0-1,.02-1.76.21-3.38.27-2.36-1.5-6.29-4.13-8.38-2.9-2.3-6.09-2.88-8.59-2.12-1.9.58-4.04,1.02-5.74,1.02-11.6,0-17.49-9.68-17.49-17.49,0-5.62,4.48-17.95,17.49-17.49,8.52.3,13.71-4.37,15.8-10.35,2.17-6.2-.64-13.31-4.39-17.03-5.07-5.04-7.22-9.31-7.22-14.75,0-9.45,10.27-20.63,20.63-20.63s17.28,6.96,19.86,15.14c2.09,6.64,5.32,11.24,11.92,15.92,8.49,6.02,14.94,6.89,30.44,6.89Z"/>
</svg>