<?xml version="1.0" encoding="UTF-8"?>
<svg id="Ebene_6" data-name="Ebene 6" xmlns="http://www.w3.org/2000/svg" viewBox="0 0 118.73 65.84">
  <defs>
    <style>
      .cls-1 {
        fill: #5478ff;
        fill-rule: evenodd;
      }
    </style>
  </defs>
  <path class="cls-1" d="M54.27,9.63c-6.15-3.53-12.1-7.83-19.05-9.25s-15.41,1.13-17.96,7.75c-2.68,6.97,2.43,14.74,8.76,18.71,1.18.74,2.53,1.58,2.75,2.95.26,1.66-1.28,3-2.7,3.89-6.1,3.82-13.17,6.1-20.35,6.55-2.36.15-5.47.73-5.71,3.08-.11,1.05.48,2.03,1.11,2.87,3.44,4.59,9,7.52,14.73,7.75,3.97.16,8.2-.86,11.78.86,4.32,2.09,6.18,7.49,10.36,9.84,5.02,2.82,11.4.25,15.95-3.27s8.56-8.1,14.03-9.89c5.34-1.74,11.13-.53,16.64.54,13.38,2.6,47.33-2.46,28.59-22.04-6.93-7.24-15.99-7.43-25.22-8.78-11.84-1.73-23.35-5.61-33.73-11.56Z"/>
</svg>